<svg xmlns="http://www.w3.org/2000/svg" xmlns:xlink="http://www.w3.org/1999/xlink" width="500" zoomAndPan="magnify" viewBox="0 0 375 374.999991" height="500" preserveAspectRatio="xMidYMid meet" version="1.0"><defs><clipPath id="ce4bd8584f"><path d="M 135.042969 134.917969 L 240 134.917969 L 240 261.667969 L 135.042969 261.667969 Z M 135.042969 134.917969 " clip-rule="nonzero"/></clipPath></defs><rect x="-37.5" width="450" fill="#ffffff" y="-37.499999" height="449.999989" fill-opacity="1"/><rect x="-37.5" width="450" fill="#000000" y="-37.499999" height="449.999989" fill-opacity="1"/><path fill="#38b6ff" d="M 191.929688 72.472656 L 174.84375 46.488281 L 198.066406 69.707031 L 217.78125 89.421875 C 217.300781 90.15625 216.84375 90.90625 216.40625 91.667969 C 215.972656 92.429688 215.558594 93.203125 215.167969 93.988281 C 214.78125 94.773438 214.414062 95.570312 214.070312 96.378906 C 213.730469 97.1875 213.410156 98.003906 213.117188 98.832031 C 212.824219 99.65625 212.554688 100.492188 212.308594 101.335938 C 212.066406 102.179688 211.84375 103.027344 211.652344 103.882812 C 211.457031 104.738281 211.289062 105.597656 211.144531 106.464844 C 211 107.332031 210.882812 108.199219 210.792969 109.070312 C 210.699219 109.945312 210.632812 110.820312 210.59375 111.695312 C 210.554688 112.570312 210.539062 113.449219 210.550781 114.328125 C 210.5625 115.203125 210.601562 116.078125 210.664062 116.957031 C 210.726562 117.832031 210.816406 118.703125 210.933594 119.574219 C 211.046875 120.441406 211.1875 121.308594 211.355469 122.167969 C 211.523438 123.03125 211.714844 123.886719 211.929688 124.738281 C 212.148438 125.585938 212.390625 126.429688 212.65625 127.265625 C 212.925781 128.101562 213.214844 128.929688 213.53125 129.746094 C 213.847656 130.566406 214.1875 131.375 214.550781 132.171875 C 214.917969 132.96875 215.304688 133.757812 215.714844 134.53125 C 216.125 135.308594 216.558594 136.070312 217.011719 136.820312 C 217.46875 137.570312 217.945312 138.304688 218.445312 139.027344 C 218.945312 139.75 219.464844 140.457031 220.007812 141.144531 C 220.546875 141.835938 221.109375 142.511719 221.6875 143.167969 C 222.269531 143.828125 222.871094 144.464844 223.488281 145.089844 C 224.109375 145.710938 224.746094 146.3125 225.398438 146.898438 C 226.054688 147.480469 226.726562 148.046875 227.414062 148.589844 C 228.101562 149.136719 228.804688 149.660156 229.523438 150.160156 C 230.242188 150.664062 230.976562 151.144531 231.722656 151.605469 C 232.46875 152.066406 233.230469 152.503906 234.003906 152.917969 C 234.777344 153.332031 235.5625 153.722656 236.359375 154.089844 C 237.15625 154.457031 237.960938 154.800781 238.777344 155.121094 C 239.597656 155.441406 240.421875 155.738281 241.257812 156.011719 C 242.089844 156.28125 242.933594 156.527344 243.78125 156.75 C 244.628906 156.972656 245.484375 157.167969 246.34375 157.339844 C 247.207031 157.507812 248.070312 157.65625 248.941406 157.773438 C 249.808594 157.894531 250.679688 157.988281 251.554688 158.054688 C 252.429688 158.125 253.308594 158.167969 254.183594 158.183594 C 255.0625 158.199219 255.9375 158.1875 256.816406 158.152344 C 257.691406 158.117188 258.566406 158.054688 259.441406 157.96875 C 260.3125 157.882812 261.183594 157.769531 262.050781 157.628906 C 262.914062 157.492188 263.777344 157.324219 264.632812 157.136719 C 265.488281 156.945312 266.339844 156.730469 267.183594 156.492188 C 268.027344 156.25 268.863281 155.984375 269.691406 155.695312 C 270.519531 155.40625 271.339844 155.089844 272.148438 154.753906 C 272.957031 154.414062 273.757812 154.054688 274.546875 153.667969 C 275.332031 153.28125 276.109375 152.875 276.875 152.441406 C 277.636719 152.011719 278.386719 151.554688 279.125 151.082031 C 279.863281 150.605469 280.585938 150.105469 281.292969 149.589844 C 282 149.070312 282.691406 148.53125 283.367188 147.972656 C 284.042969 147.410156 284.703125 146.832031 285.34375 146.234375 C 285.984375 145.632812 286.609375 145.019531 287.210938 144.382812 C 287.816406 143.746094 288.402344 143.09375 288.96875 142.421875 C 289.535156 141.753906 290.082031 141.066406 290.609375 140.363281 C 291.132812 139.660156 291.636719 138.945312 292.121094 138.210938 C 292.605469 137.480469 293.066406 136.734375 293.503906 135.972656 C 293.941406 135.214844 294.359375 134.441406 294.753906 133.65625 C 295.144531 132.871094 295.515625 132.078125 295.863281 131.273438 C 296.207031 130.464844 296.53125 129.648438 296.828125 128.824219 C 297.125 128 297.398438 127.164062 297.648438 126.324219 C 297.894531 125.484375 298.117188 124.632812 298.316406 123.78125 C 298.515625 122.925781 298.6875 122.066406 298.835938 121.199219 C 298.984375 120.335938 299.105469 119.464844 299.203125 118.59375 C 299.296875 117.722656 299.367188 116.847656 299.410156 115.972656 C 299.457031 115.09375 299.472656 114.21875 299.464844 113.339844 C 299.457031 112.464844 299.425781 111.585938 299.367188 110.710938 C 299.304688 109.835938 299.21875 108.964844 299.109375 108.09375 C 299 107.222656 298.863281 106.355469 298.699219 105.496094 C 298.535156 104.632812 298.347656 103.777344 298.136719 102.925781 C 297.921875 102.074219 297.683594 101.230469 297.421875 100.390625 C 297.15625 99.554688 296.871094 98.726562 296.558594 97.90625 C 296.246094 97.085938 295.910156 96.277344 295.546875 95.476562 C 295.1875 94.675781 294.804688 93.886719 294.398438 93.109375 C 293.992188 92.332031 293.5625 91.570312 293.109375 90.816406 C 292.65625 90.066406 292.183594 89.328125 291.6875 88.601562 C 291.191406 87.878906 290.675781 87.171875 290.136719 86.476562 C 289.597656 85.785156 289.042969 85.109375 288.464844 84.449219 C 287.886719 83.785156 287.289062 83.144531 286.671875 82.519531 C 286.058594 81.894531 285.421875 81.289062 284.769531 80.699219 C 284.121094 80.113281 283.449219 79.546875 282.765625 79 C 282.078125 78.449219 281.378906 77.921875 280.664062 77.417969 C 279.945312 76.910156 279.214844 76.425781 278.46875 75.964844 C 277.722656 75.5 276.964844 75.058594 276.195312 74.640625 C 275.421875 74.222656 274.640625 73.828125 273.84375 73.457031 C 273.050781 73.085938 272.246094 72.738281 271.429688 72.414062 C 270.613281 72.089844 269.789062 71.789062 268.957031 71.515625 C 268.125 71.238281 267.285156 70.988281 266.433594 70.761719 C 265.585938 70.539062 264.734375 70.335938 263.875 70.160156 C 263.015625 69.988281 262.148438 69.835938 261.28125 69.714844 C 260.414062 69.589844 259.542969 69.492188 258.667969 69.417969 C 257.792969 69.347656 256.917969 69.300781 256.039062 69.28125 C 255.160156 69.261719 254.285156 69.265625 253.40625 69.296875 C 252.53125 69.328125 251.65625 69.386719 250.78125 69.46875 C 249.910156 69.554688 249.039062 69.664062 248.171875 69.796875 C 247.304688 69.933594 246.441406 70.09375 245.585938 70.277344 C 244.726562 70.464844 243.875 70.675781 243.03125 70.914062 C 242.1875 71.148438 241.347656 71.410156 240.519531 71.695312 C 239.691406 71.980469 238.871094 72.292969 238.058594 72.625 L 259.640625 105.445312 L 230.695312 76.507812 L 210.980469 56.792969 C 211.304688 56.21875 211.609375 55.640625 211.898438 55.050781 C 212.191406 54.460938 212.464844 53.863281 212.71875 53.257812 C 212.972656 52.652344 213.210938 52.039062 213.433594 51.421875 C 213.652344 50.800781 213.855469 50.175781 214.039062 49.542969 C 214.222656 48.914062 214.386719 48.277344 214.535156 47.636719 C 214.683594 46.996094 214.8125 46.351562 214.921875 45.707031 C 215.03125 45.058594 215.125 44.40625 215.195312 43.753906 C 215.269531 43.101562 215.320312 42.445312 215.355469 41.789062 C 215.390625 41.132812 215.40625 40.476562 215.402344 39.820312 C 215.402344 39.164062 215.378906 38.503906 215.335938 37.851562 C 215.296875 37.195312 215.234375 36.539062 215.15625 35.886719 C 215.078125 35.234375 214.980469 34.585938 214.863281 33.9375 C 214.746094 33.292969 214.613281 32.648438 214.460938 32.011719 C 214.304688 31.371094 214.132812 30.738281 213.945312 30.109375 C 213.753906 29.480469 213.546875 28.855469 213.320312 28.238281 C 213.09375 27.621094 212.847656 27.011719 212.585938 26.410156 C 212.328125 25.804688 212.046875 25.210938 211.753906 24.625 C 211.457031 24.039062 211.144531 23.460938 210.816406 22.890625 C 210.484375 22.320312 210.140625 21.761719 209.777344 21.214844 C 209.417969 20.664062 209.039062 20.128906 208.648438 19.601562 C 208.253906 19.074219 207.847656 18.558594 207.425781 18.054688 C 207.003906 17.550781 206.566406 17.058594 206.117188 16.582031 C 205.664062 16.101562 205.203125 15.636719 204.722656 15.1875 C 204.246094 14.734375 203.757812 14.296875 203.253906 13.875 C 202.75 13.449219 202.238281 13.042969 201.710938 12.648438 C 201.183594 12.253906 200.648438 11.878906 200.097656 11.515625 C 199.550781 11.152344 198.992188 10.804688 198.425781 10.476562 C 197.855469 10.144531 197.277344 9.832031 196.691406 9.535156 C 196.105469 9.238281 195.511719 8.957031 194.910156 8.695312 C 194.308594 8.433594 193.699219 8.1875 193.082031 7.960938 C 192.464844 7.734375 191.84375 7.523438 191.214844 7.332031 C 190.585938 7.140625 189.949219 6.96875 189.3125 6.8125 C 188.671875 6.660156 188.03125 6.523438 187.382812 6.40625 C 186.738281 6.285156 186.089844 6.1875 185.4375 6.109375 C 184.785156 6.027344 184.128906 5.964844 183.472656 5.921875 C 182.816406 5.882812 182.160156 5.859375 181.503906 5.851562 C 180.847656 5.847656 180.191406 5.863281 179.535156 5.898438 C 178.878906 5.929688 178.222656 5.980469 177.570312 6.054688 C 176.917969 6.125 176.265625 6.214844 175.617188 6.324219 C 174.96875 6.433594 174.324219 6.558594 173.683594 6.707031 C 173.042969 6.851562 172.40625 7.015625 171.777344 7.199219 C 171.144531 7.382812 170.519531 7.582031 169.898438 7.800781 C 169.28125 8.019531 168.667969 8.257812 168.0625 8.511719 C 167.457031 8.765625 166.859375 9.039062 166.265625 9.328125 C 165.675781 9.617188 165.09375 9.921875 164.523438 10.242188 C 163.949219 10.566406 163.386719 10.90625 162.835938 11.257812 C 162.28125 11.613281 161.738281 11.984375 161.207031 12.371094 C 160.675781 12.757812 160.15625 13.160156 159.648438 13.574219 C 159.140625 13.992188 158.644531 14.421875 158.160156 14.867188 C 157.675781 15.3125 157.203125 15.769531 156.746094 16.242188 C 156.289062 16.714844 155.847656 17.199219 155.417969 17.699219 C 154.988281 18.195312 154.574219 18.707031 154.175781 19.226562 C 153.777344 19.75 153.390625 20.28125 153.023438 20.824219 C 152.652344 21.371094 152.300781 21.921875 151.964844 22.488281 C 151.628906 23.050781 151.308594 23.625 151.003906 24.207031 C 150.699219 24.789062 150.414062 25.382812 150.144531 25.980469 C 149.875 26.582031 149.621094 27.1875 149.386719 27.800781 C 149.152344 28.414062 148.933594 29.035156 148.738281 29.660156 C 148.539062 30.289062 148.355469 30.917969 148.195312 31.554688 C 148.03125 32.191406 147.890625 32.835938 147.761719 33.480469 C 147.636719 34.125 147.53125 34.773438 147.445312 35.421875 C 147.355469 36.074219 147.285156 36.726562 147.238281 37.382812 C 147.1875 38.039062 147.15625 38.695312 147.144531 39.351562 C 147.132812 40.007812 147.136719 40.667969 147.164062 41.324219 C 147.191406 41.980469 147.234375 42.632812 147.296875 43.289062 C 147.363281 43.941406 147.445312 44.59375 147.546875 45.242188 C 147.644531 45.894531 147.765625 46.539062 147.90625 47.179688 C 148.042969 47.824219 148.199219 48.460938 148.375 49.09375 C 148.550781 49.730469 148.746094 50.355469 148.957031 50.980469 C 149.167969 51.601562 149.398438 52.214844 149.644531 52.824219 C 149.890625 53.433594 150.15625 54.035156 150.4375 54.628906 C 150.71875 55.222656 151.019531 55.808594 151.335938 56.382812 C 151.648438 56.960938 151.980469 57.527344 152.332031 58.085938 C 152.679688 58.640625 153.042969 59.1875 153.421875 59.722656 C 153.804688 60.261719 154.199219 60.785156 154.609375 61.296875 C 155.019531 61.8125 155.445312 62.3125 155.882812 62.800781 C 156.324219 63.289062 156.777344 63.765625 157.242188 64.230469 C 157.710938 64.691406 158.1875 65.140625 158.683594 65.574219 C 159.175781 66.011719 159.679688 66.429688 160.195312 66.835938 C 160.714844 67.242188 161.242188 67.632812 161.78125 68.007812 C 162.320312 68.382812 162.871094 68.742188 163.429688 69.085938 C 163.992188 69.429688 164.558594 69.757812 165.140625 70.066406 C 165.71875 70.378906 166.304688 70.671875 166.902344 70.949219 C 167.5 71.222656 168.101562 71.484375 168.714844 71.726562 C 169.324219 71.96875 169.941406 72.191406 170.566406 72.398438 C 171.191406 72.601562 171.820312 72.792969 172.453125 72.960938 C 173.089844 73.128906 173.726562 73.28125 174.371094 73.414062 C 175.015625 73.546875 175.664062 73.660156 176.3125 73.757812 C 176.964844 73.851562 177.617188 73.929688 178.269531 73.988281 C 178.925781 74.042969 179.582031 74.082031 180.238281 74.101562 C 180.894531 74.125 181.550781 74.125 182.207031 74.105469 C 182.863281 74.089844 183.519531 74.050781 184.175781 73.996094 C 184.832031 73.9375 185.484375 73.863281 186.132812 73.769531 C 186.785156 73.675781 187.429688 73.566406 188.074219 73.433594 C 188.71875 73.304688 189.359375 73.152344 189.996094 72.984375 C 190.628906 72.816406 191.257812 72.632812 191.882812 72.425781 Z M 191.929688 72.472656 " fill-opacity="1" fill-rule="nonzero"/><path fill="#38b6ff" d="M 359.191406 155.035156 C 358.515625 154.363281 357.816406 153.71875 357.09375 153.105469 C 356.367188 152.488281 355.617188 151.90625 354.839844 151.355469 C 354.066406 150.804688 353.269531 150.285156 352.453125 149.800781 C 351.632812 149.316406 350.796875 148.863281 349.941406 148.449219 C 349.085938 148.035156 348.214844 147.65625 347.324219 147.3125 C 346.4375 146.972656 345.539062 146.667969 344.625 146.398438 C 343.710938 146.132812 342.789062 145.90625 341.859375 145.714844 C 340.925781 145.523438 339.988281 145.375 339.042969 145.261719 C 338.097656 145.152344 337.152344 145.078125 336.199219 145.046875 C 335.25 145.015625 334.300781 145.023438 333.347656 145.070312 C 332.398438 145.117188 331.453125 145.203125 330.511719 145.328125 C 329.566406 145.457031 328.632812 145.621094 327.703125 145.828125 C 326.773438 146.03125 325.855469 146.273438 324.945312 146.554688 C 324.039062 146.835938 323.144531 147.15625 322.261719 147.511719 C 321.378906 147.867188 320.511719 148.261719 319.664062 148.6875 C 318.816406 149.117188 317.984375 149.582031 317.175781 150.078125 C 316.363281 150.578125 315.578125 151.105469 314.808594 151.671875 C 314.042969 152.234375 313.304688 152.828125 312.585938 153.457031 C 311.871094 154.082031 311.179688 154.734375 310.519531 155.417969 C 309.859375 156.101562 309.226562 156.8125 308.625 157.546875 C 308.023438 158.285156 307.453125 159.042969 306.914062 159.828125 C 306.375 160.613281 305.867188 161.417969 305.398438 162.242188 C 304.925781 163.070312 304.488281 163.914062 304.089844 164.777344 C 303.6875 165.640625 303.324219 166.515625 302.996094 167.410156 C 302.667969 168.304688 302.378906 169.207031 302.128906 170.125 C 301.875 171.042969 301.664062 171.96875 301.488281 172.902344 C 301.3125 173.839844 301.179688 174.78125 301.082031 175.726562 C 300.988281 176.671875 300.933594 177.621094 300.914062 178.570312 C 300.898438 179.523438 300.921875 180.472656 300.984375 181.421875 C 301.046875 182.371094 301.152344 183.316406 301.292969 184.257812 C 301.433594 185.195312 301.617188 186.128906 301.835938 187.054688 C 302.054688 187.980469 302.3125 188.894531 302.609375 189.796875 L 328.59375 172.714844 L 285.660156 215.648438 C 284.925781 215.171875 284.175781 214.714844 283.414062 214.277344 C 282.652344 213.84375 281.878906 213.429688 281.09375 213.039062 C 280.308594 212.652344 279.511719 212.285156 278.703125 211.945312 C 277.894531 211.601562 277.078125 211.28125 276.253906 210.988281 C 275.425781 210.695312 274.589844 210.425781 273.75 210.183594 C 272.90625 209.9375 272.058594 209.71875 271.203125 209.523438 C 270.347656 209.328125 269.488281 209.160156 268.621094 209.015625 C 267.753906 208.875 266.886719 208.757812 266.015625 208.664062 C 265.140625 208.574219 264.269531 208.507812 263.390625 208.46875 C 262.515625 208.425781 261.636719 208.414062 260.761719 208.425781 C 259.882812 208.4375 259.007812 208.472656 258.132812 208.539062 C 257.257812 208.601562 256.386719 208.691406 255.515625 208.804688 C 254.648438 208.921875 253.78125 209.0625 252.921875 209.230469 C 252.058594 209.394531 251.203125 209.585938 250.355469 209.804688 C 249.503906 210.023438 248.660156 210.265625 247.824219 210.53125 C 246.992188 210.796875 246.164062 211.089844 245.34375 211.40625 C 244.527344 211.722656 243.71875 212.0625 242.921875 212.425781 C 242.121094 212.789062 241.335938 213.175781 240.5625 213.585938 C 239.785156 214 239.023438 214.429688 238.273438 214.886719 C 237.523438 215.34375 236.789062 215.820312 236.066406 216.320312 C 235.347656 216.816406 234.640625 217.339844 233.949219 217.878906 C 233.257812 218.417969 232.585938 218.980469 231.929688 219.5625 C 231.269531 220.140625 230.628906 220.742188 230.007812 221.359375 C 229.386719 221.980469 228.785156 222.617188 228.199219 223.269531 C 227.617188 223.925781 227.050781 224.597656 226.507812 225.285156 C 225.964844 225.972656 225.4375 226.675781 224.9375 227.394531 C 224.433594 228.113281 223.953125 228.84375 223.492188 229.59375 C 223.035156 230.339844 222.597656 231.101562 222.183594 231.875 C 221.769531 232.648438 221.378906 233.429688 221.007812 234.226562 C 220.640625 235.023438 220.296875 235.832031 219.976562 236.648438 C 219.65625 237.464844 219.363281 238.289062 219.089844 239.125 C 218.820312 239.957031 218.574219 240.800781 218.351562 241.648438 C 218.128906 242.496094 217.933594 243.351562 217.761719 244.210938 C 217.59375 245.070312 217.445312 245.9375 217.328125 246.804688 C 217.207031 247.675781 217.113281 248.546875 217.046875 249.421875 C 216.976562 250.296875 216.933594 251.171875 216.917969 252.046875 C 216.902344 252.925781 216.914062 253.800781 216.949219 254.679688 C 216.984375 255.554688 217.046875 256.429688 217.132812 257.300781 C 217.21875 258.175781 217.332031 259.042969 217.472656 259.910156 C 217.609375 260.777344 217.777344 261.636719 217.964844 262.496094 C 218.15625 263.351562 218.371094 264.199219 218.609375 265.042969 C 218.851562 265.886719 219.117188 266.722656 219.40625 267.550781 C 219.695312 268.378906 220.007812 269.199219 220.347656 270.007812 C 220.6875 270.816406 221.046875 271.617188 221.433594 272.402344 C 221.820312 273.191406 222.226562 273.96875 222.660156 274.730469 C 223.089844 275.496094 223.542969 276.246094 224.019531 276.980469 C 224.496094 277.71875 224.992188 278.441406 225.511719 279.148438 C 226.03125 279.855469 226.570312 280.546875 227.128906 281.222656 C 227.6875 281.898438 228.265625 282.558594 228.867188 283.199219 C 229.464844 283.839844 230.082031 284.460938 230.714844 285.066406 C 231.351562 285.671875 232.003906 286.257812 232.675781 286.824219 C 233.34375 287.390625 234.03125 287.9375 234.734375 288.460938 C 235.433594 288.988281 236.152344 289.492188 236.882812 289.972656 C 237.617188 290.457031 238.363281 290.917969 239.121094 291.355469 C 239.882812 291.796875 240.652344 292.210938 241.4375 292.605469 C 242.222656 292.996094 243.015625 293.367188 243.824219 293.714844 C 244.628906 294.058594 245.445312 294.382812 246.269531 294.679688 C 247.09375 294.976562 247.925781 295.25 248.769531 295.5 C 249.609375 295.746094 250.457031 295.972656 251.3125 296.167969 C 252.167969 296.367188 253.027344 296.539062 253.890625 296.6875 C 254.757812 296.835938 255.625 296.957031 256.496094 297.054688 C 257.367188 297.148438 258.242188 297.21875 259.117188 297.261719 C 259.996094 297.308594 260.871094 297.324219 261.746094 297.316406 C 262.625 297.308594 263.5 297.277344 264.375 297.21875 C 265.25 297.15625 266.125 297.074219 266.996094 296.960938 C 267.863281 296.851562 268.730469 296.714844 269.59375 296.550781 C 270.453125 296.386719 271.3125 296.199219 272.160156 295.988281 C 273.011719 295.773438 273.855469 295.535156 274.691406 295.273438 C 275.53125 295.011719 276.359375 294.722656 277.179688 294.410156 C 277.996094 294.097656 278.808594 293.761719 279.609375 293.402344 C 280.40625 293.042969 281.195312 292.660156 281.972656 292.25 C 282.75 291.84375 283.515625 291.414062 284.265625 290.964844 C 285.019531 290.511719 285.757812 290.039062 286.480469 289.542969 C 287.203125 289.046875 287.910156 288.53125 288.605469 287.992188 C 289.296875 287.453125 289.972656 286.898438 290.632812 286.320312 C 291.292969 285.742188 291.9375 285.144531 292.5625 284.527344 C 293.1875 283.914062 293.792969 283.28125 294.378906 282.628906 C 294.96875 281.976562 295.535156 281.308594 296.082031 280.621094 C 296.628906 279.9375 297.15625 279.238281 297.664062 278.519531 C 298.167969 277.804688 298.652344 277.074219 299.117188 276.328125 C 299.578125 275.582031 300.019531 274.824219 300.4375 274.054688 C 300.855469 273.28125 301.25 272.5 301.621094 271.707031 C 301.996094 270.910156 302.34375 270.105469 302.667969 269.289062 C 302.992188 268.476562 303.289062 267.652344 303.566406 266.820312 C 303.839844 265.984375 304.089844 265.144531 304.316406 264.296875 C 304.542969 263.449219 304.742188 262.597656 304.917969 261.738281 C 305.09375 260.878906 305.242188 260.011719 305.367188 259.144531 C 305.488281 258.277344 305.585938 257.40625 305.660156 256.53125 C 305.730469 255.65625 305.777344 254.78125 305.796875 253.90625 C 305.820312 253.027344 305.8125 252.152344 305.78125 251.273438 C 305.75 250.398438 305.691406 249.523438 305.609375 248.648438 C 305.527344 247.777344 305.417969 246.90625 305.28125 246.039062 C 305.148438 245.171875 304.988281 244.3125 304.800781 243.453125 C 304.617188 242.597656 304.40625 241.746094 304.167969 240.902344 C 303.933594 240.054688 303.671875 239.21875 303.386719 238.390625 C 303.101562 237.558594 302.789062 236.738281 302.457031 235.929688 L 269.636719 257.5 L 298.574219 228.566406 L 318.289062 208.851562 C 319.179688 209.347656 320.089844 209.808594 321.019531 210.222656 C 321.949219 210.640625 322.894531 211.015625 323.859375 211.347656 C 324.824219 211.679688 325.800781 211.96875 326.789062 212.214844 C 327.78125 212.460938 328.777344 212.660156 329.785156 212.816406 C 330.792969 212.972656 331.804688 213.082031 332.824219 213.144531 C 333.839844 213.210938 334.859375 213.230469 335.878906 213.203125 C 336.898438 213.175781 337.914062 213.105469 338.925781 212.988281 C 339.941406 212.871094 340.945312 212.707031 341.945312 212.5 C 342.941406 212.292969 343.929688 212.039062 344.90625 211.746094 C 345.878906 211.449219 346.839844 211.109375 347.785156 210.726562 C 348.730469 210.34375 349.65625 209.921875 350.566406 209.457031 C 351.472656 208.992188 352.355469 208.488281 353.21875 207.941406 C 354.082031 207.398438 354.917969 206.816406 355.726562 206.199219 C 356.539062 205.578125 357.320312 204.925781 358.070312 204.234375 C 358.820312 203.546875 359.539062 202.824219 360.226562 202.070312 C 360.914062 201.316406 361.566406 200.535156 362.183594 199.722656 C 362.800781 198.910156 363.378906 198.074219 363.921875 197.210938 C 364.460938 196.347656 364.964844 195.460938 365.425781 194.550781 C 365.886719 193.640625 366.308594 192.714844 366.6875 191.769531 C 367.066406 190.820312 367.402344 189.859375 367.695312 188.882812 C 367.988281 187.90625 368.238281 186.917969 368.441406 185.921875 C 368.648438 184.921875 368.808594 183.917969 368.921875 182.902344 C 369.035156 181.890625 369.105469 180.875 369.128906 179.855469 C 369.152344 178.835938 369.128906 177.816406 369.0625 176.800781 C 368.992188 175.78125 368.878906 174.769531 368.722656 173.761719 C 368.5625 172.753906 368.359375 171.757812 368.113281 170.769531 C 367.863281 169.777344 367.574219 168.804688 367.238281 167.839844 C 366.902344 166.878906 366.523438 165.933594 366.105469 165.003906 C 365.683594 164.074219 365.222656 163.164062 364.722656 162.277344 C 364.222656 161.390625 363.679688 160.527344 363.101562 159.6875 C 362.523438 158.847656 361.90625 158.035156 361.257812 157.25 C 360.605469 156.46875 359.917969 155.714844 359.199219 154.992188 Z M 359.191406 155.035156 " fill-opacity="1" fill-rule="nonzero"/><path fill="#38b6ff" d="M 177.90625 307.855469 L 194.992188 333.839844 L 171.769531 310.621094 L 152.054688 290.90625 C 152.535156 290.171875 152.992188 289.421875 153.429688 288.660156 C 153.863281 287.898438 154.277344 287.125 154.667969 286.339844 C 155.054688 285.550781 155.421875 284.753906 155.765625 283.945312 C 156.105469 283.140625 156.425781 282.320312 156.71875 281.496094 C 157.011719 280.667969 157.28125 279.835938 157.527344 278.992188 C 157.773438 278.148438 157.992188 277.300781 158.183594 276.445312 C 158.378906 275.589844 158.546875 274.726562 158.691406 273.863281 C 158.835938 272.996094 158.953125 272.128906 159.046875 271.253906 C 159.136719 270.382812 159.203125 269.507812 159.242188 268.632812 C 159.285156 267.753906 159.296875 266.878906 159.285156 266 C 159.273438 265.125 159.234375 264.246094 159.171875 263.371094 C 159.109375 262.496094 159.019531 261.625 158.902344 260.753906 C 158.789062 259.882812 158.648438 259.019531 158.480469 258.15625 C 158.316406 257.296875 158.121094 256.441406 157.90625 255.589844 C 157.6875 254.738281 157.445312 253.898438 157.179688 253.0625 C 156.910156 252.226562 156.621094 251.398438 156.304688 250.578125 C 155.988281 249.761719 155.648438 248.953125 155.285156 248.15625 C 154.921875 247.355469 154.53125 246.570312 154.121094 245.792969 C 153.710938 245.019531 153.277344 244.253906 152.824219 243.507812 C 152.367188 242.757812 151.890625 242.019531 151.390625 241.300781 C 150.890625 240.578125 150.371094 239.871094 149.832031 239.179688 C 149.289062 238.488281 148.726562 237.816406 148.148438 237.160156 C 147.566406 236.5 146.964844 235.859375 146.347656 235.238281 C 145.726562 234.617188 145.089844 234.015625 144.4375 233.429688 C 143.78125 232.84375 143.113281 232.28125 142.421875 231.734375 C 141.734375 231.191406 141.03125 230.667969 140.3125 230.164062 C 139.59375 229.660156 138.859375 229.179688 138.113281 228.722656 C 137.367188 228.261719 136.605469 227.824219 135.832031 227.410156 C 135.058594 226.996094 134.273438 226.605469 133.476562 226.238281 C 132.679688 225.867188 131.875 225.523438 131.058594 225.203125 C 130.242188 224.882812 129.414062 224.589844 128.582031 224.316406 C 127.746094 224.046875 126.902344 223.796875 126.054688 223.578125 C 125.207031 223.355469 124.351562 223.160156 123.492188 222.988281 C 122.628906 222.816406 121.765625 222.671875 120.894531 222.550781 C 120.027344 222.433594 119.15625 222.339844 118.28125 222.269531 C 117.40625 222.203125 116.527344 222.160156 115.652344 222.144531 C 114.773438 222.128906 113.898438 222.136719 113.019531 222.171875 C 112.144531 222.210938 111.269531 222.269531 110.394531 222.359375 C 109.523438 222.445312 108.652344 222.558594 107.789062 222.699219 C 106.921875 222.835938 106.058594 223 105.203125 223.191406 C 104.347656 223.382812 103.496094 223.597656 102.652344 223.835938 C 101.808594 224.078125 100.972656 224.34375 100.144531 224.632812 C 99.316406 224.921875 98.496094 225.234375 97.6875 225.574219 C 96.878906 225.910156 96.078125 226.273438 95.289062 226.660156 C 94.503906 227.046875 93.726562 227.453125 92.960938 227.886719 C 92.199219 228.316406 91.449219 228.769531 90.710938 229.246094 C 89.972656 229.722656 89.25 230.21875 88.542969 230.738281 C 87.835938 231.257812 87.144531 231.796875 86.46875 232.355469 C 85.792969 232.914062 85.132812 233.496094 84.492188 234.09375 C 83.851562 234.691406 83.226562 235.308594 82.625 235.945312 C 82.019531 236.582031 81.433594 237.234375 80.867188 237.902344 C 80.300781 238.574219 79.753906 239.261719 79.230469 239.964844 C 78.703125 240.664062 78.199219 241.382812 77.714844 242.117188 C 77.234375 242.847656 76.773438 243.59375 76.332031 244.355469 C 75.894531 245.113281 75.476562 245.886719 75.085938 246.667969 C 74.691406 247.453125 74.320312 248.25 73.976562 249.054688 C 73.628906 249.863281 73.308594 250.675781 73.007812 251.503906 C 72.710938 252.328125 72.4375 253.160156 72.1875 254.003906 C 71.941406 254.84375 71.71875 255.691406 71.519531 256.546875 C 71.320312 257.402344 71.148438 258.261719 71 259.125 C 70.851562 259.992188 70.730469 260.859375 70.636719 261.734375 C 70.539062 262.605469 70.46875 263.480469 70.425781 264.355469 C 70.378906 265.230469 70.363281 266.109375 70.371094 266.984375 C 70.378906 267.863281 70.410156 268.738281 70.472656 269.613281 C 70.53125 270.488281 70.617188 271.363281 70.726562 272.234375 C 70.839844 273.105469 70.976562 273.96875 71.136719 274.832031 C 71.300781 275.695312 71.488281 276.550781 71.703125 277.402344 C 71.914062 278.253906 72.152344 279.097656 72.414062 279.933594 C 72.679688 280.769531 72.964844 281.601562 73.277344 282.417969 C 73.589844 283.238281 73.925781 284.050781 74.289062 284.851562 C 74.648438 285.648438 75.03125 286.4375 75.4375 287.214844 C 75.84375 287.992188 76.273438 288.757812 76.726562 289.511719 C 77.179688 290.261719 77.652344 291 78.148438 291.722656 C 78.644531 292.449219 79.160156 293.15625 79.699219 293.847656 C 80.238281 294.542969 80.796875 295.21875 81.375 295.878906 C 81.949219 296.539062 82.546875 297.183594 83.164062 297.808594 C 83.78125 298.433594 84.414062 299.039062 85.066406 299.625 C 85.71875 300.214844 86.386719 300.78125 87.070312 301.328125 C 87.757812 301.875 88.457031 302.402344 89.175781 302.910156 C 89.890625 303.417969 90.621094 303.902344 91.367188 304.363281 C 92.113281 304.828125 92.871094 305.265625 93.640625 305.683594 C 94.414062 306.105469 95.195312 306.5 95.992188 306.871094 C 96.785156 307.242188 97.589844 307.589844 98.40625 307.914062 C 99.222656 308.238281 100.046875 308.539062 100.878906 308.8125 C 101.710938 309.089844 102.554688 309.339844 103.402344 309.5625 C 104.25 309.789062 105.101562 309.988281 105.960938 310.164062 C 106.824219 310.339844 107.6875 310.488281 108.554688 310.613281 C 109.425781 310.738281 110.296875 310.835938 111.171875 310.90625 C 112.042969 310.980469 112.921875 311.027344 113.796875 311.046875 C 114.675781 311.066406 115.550781 311.0625 116.429688 311.027344 C 117.304688 310.996094 118.179688 310.941406 119.054688 310.855469 C 119.925781 310.773438 120.796875 310.664062 121.664062 310.53125 C 122.53125 310.394531 123.394531 310.234375 124.25 310.046875 C 125.109375 309.863281 125.960938 309.652344 126.804688 309.414062 C 127.648438 309.179688 128.488281 308.917969 129.316406 308.632812 C 130.144531 308.34375 130.964844 308.035156 131.777344 307.699219 L 110.195312 274.882812 L 139.140625 303.820312 L 158.84375 323.535156 C 158.523438 324.105469 158.214844 324.6875 157.921875 325.277344 C 157.632812 325.867188 157.359375 326.464844 157.105469 327.070312 C 156.847656 327.675781 156.609375 328.289062 156.390625 328.910156 C 156.167969 329.527344 155.964844 330.15625 155.78125 330.785156 C 155.597656 331.417969 155.429688 332.054688 155.285156 332.695312 C 155.136719 333.335938 155.007812 333.980469 154.898438 334.628906 C 154.785156 335.277344 154.695312 335.925781 154.621094 336.582031 C 154.550781 337.234375 154.496094 337.890625 154.460938 338.546875 C 154.425781 339.203125 154.410156 339.859375 154.410156 340.515625 C 154.414062 341.175781 154.4375 341.832031 154.476562 342.488281 C 154.519531 343.144531 154.578125 343.800781 154.65625 344.453125 C 154.734375 345.105469 154.832031 345.753906 154.949219 346.402344 C 155.066406 347.050781 155.199219 347.691406 155.355469 348.332031 C 155.507812 348.972656 155.679688 349.605469 155.871094 350.234375 C 156.058594 350.867188 156.265625 351.488281 156.492188 352.105469 C 156.71875 352.722656 156.964844 353.335938 157.226562 353.9375 C 157.484375 354.542969 157.765625 355.136719 158.058594 355.722656 C 158.355469 356.3125 158.667969 356.890625 158.996094 357.460938 C 159.328125 358.027344 159.671875 358.589844 160.035156 359.136719 C 160.394531 359.6875 160.773438 360.226562 161.164062 360.753906 C 161.558594 361.28125 161.964844 361.796875 162.386719 362.300781 C 162.808594 362.804688 163.246094 363.296875 163.695312 363.773438 C 164.148438 364.253906 164.613281 364.71875 165.089844 365.171875 C 165.566406 365.625 166.058594 366.0625 166.558594 366.484375 C 167.0625 366.910156 167.578125 367.316406 168.105469 367.710938 C 168.632812 368.105469 169.167969 368.484375 169.71875 368.847656 C 170.265625 369.210938 170.824219 369.554688 171.390625 369.886719 C 171.960938 370.21875 172.539062 370.53125 173.125 370.828125 C 173.710938 371.125 174.304688 371.40625 174.910156 371.667969 C 175.511719 371.933594 176.121094 372.179688 176.738281 372.40625 C 177.355469 372.632812 177.976562 372.84375 178.609375 373.035156 C 179.238281 373.226562 179.871094 373.398438 180.507812 373.554688 C 181.148438 373.710938 181.792969 373.847656 182.4375 373.964844 C 183.085938 374.082031 183.734375 374.183594 184.386719 374.261719 C 185.039062 374.34375 185.695312 374.40625 186.351562 374.445312 C 187.007812 374.488281 187.664062 374.511719 188.324219 374.519531 C 188.980469 374.523438 189.636719 374.507812 190.292969 374.476562 C 190.949219 374.441406 191.605469 374.390625 192.261719 374.320312 C 192.914062 374.246094 193.566406 374.15625 194.214844 374.050781 C 194.863281 373.941406 195.507812 373.8125 196.148438 373.667969 C 196.789062 373.519531 197.425781 373.355469 198.058594 373.175781 C 198.6875 372.992188 199.316406 372.789062 199.933594 372.570312 C 200.554688 372.351562 201.167969 372.117188 201.773438 371.863281 C 202.382812 371.609375 202.980469 371.335938 203.570312 371.046875 C 204.160156 370.757812 204.742188 370.453125 205.316406 370.128906 C 205.890625 369.808594 206.453125 369.46875 207.007812 369.113281 C 207.5625 368.757812 208.101562 368.386719 208.636719 368 C 209.167969 367.613281 209.6875 367.214844 210.195312 366.796875 C 210.707031 366.378906 211.203125 365.949219 211.6875 365.503906 C 212.171875 365.058594 212.640625 364.601562 213.097656 364.128906 C 213.558594 363.65625 214 363.171875 214.429688 362.671875 C 214.859375 362.175781 215.273438 361.664062 215.675781 361.144531 C 216.074219 360.621094 216.460938 360.089844 216.828125 359.542969 C 217.199219 359 217.550781 358.445312 217.886719 357.882812 C 218.226562 357.316406 218.546875 356.742188 218.851562 356.160156 C 219.15625 355.578125 219.441406 354.984375 219.710938 354.386719 C 219.980469 353.785156 220.234375 353.179688 220.46875 352.566406 C 220.703125 351.949219 220.921875 351.328125 221.121094 350.703125 C 221.320312 350.078125 221.5 349.445312 221.664062 348.808594 C 221.824219 348.171875 221.96875 347.527344 222.09375 346.882812 C 222.21875 346.238281 222.328125 345.589844 222.414062 344.9375 C 222.503906 344.285156 222.570312 343.632812 222.621094 342.976562 C 222.671875 342.320312 222.703125 341.664062 222.714844 341.007812 C 222.730469 340.347656 222.722656 339.691406 222.695312 339.035156 C 222.671875 338.378906 222.625 337.722656 222.5625 337.066406 C 222.5 336.414062 222.417969 335.761719 222.316406 335.109375 C 222.214844 334.460938 222.09375 333.8125 221.957031 333.171875 C 221.816406 332.527344 221.660156 331.890625 221.484375 331.257812 C 221.308594 330.621094 221.117188 329.992188 220.90625 329.371094 C 220.695312 328.75 220.464844 328.132812 220.21875 327.523438 C 219.96875 326.914062 219.707031 326.3125 219.421875 325.71875 C 219.140625 325.125 218.84375 324.539062 218.527344 323.960938 C 218.210938 323.386719 217.878906 322.816406 217.53125 322.261719 C 217.179688 321.703125 216.816406 321.15625 216.4375 320.617188 C 216.054688 320.082031 215.660156 319.558594 215.25 319.042969 C 214.839844 318.527344 214.414062 318.027344 213.976562 317.539062 C 213.535156 317.050781 213.082031 316.574219 212.617188 316.109375 C 212.148438 315.648438 211.667969 315.199219 211.175781 314.761719 C 210.683594 314.328125 210.179688 313.90625 209.660156 313.5 C 209.144531 313.09375 208.617188 312.703125 208.074219 312.328125 C 207.535156 311.953125 206.984375 311.59375 206.425781 311.25 C 205.863281 310.90625 205.292969 310.578125 204.714844 310.265625 C 204.136719 309.957031 203.546875 309.660156 202.949219 309.382812 C 202.355469 309.109375 201.75 308.847656 201.140625 308.605469 C 200.527344 308.363281 199.910156 308.140625 199.285156 307.933594 C 198.660156 307.726562 198.03125 307.539062 197.394531 307.367188 C 196.761719 307.199219 196.121094 307.046875 195.476562 306.914062 C 194.832031 306.78125 194.183594 306.667969 193.535156 306.570312 C 192.882812 306.476562 192.230469 306.398438 191.574219 306.339844 C 190.921875 306.28125 190.265625 306.246094 189.605469 306.222656 C 188.949219 306.203125 188.292969 306.203125 187.636719 306.222656 C 186.976562 306.238281 186.320312 306.277344 185.667969 306.332031 C 185.011719 306.386719 184.359375 306.460938 183.707031 306.554688 C 183.054688 306.648438 182.410156 306.761719 181.765625 306.894531 C 181.121094 307.023438 180.480469 307.171875 179.84375 307.339844 C 179.207031 307.507812 178.578125 307.695312 177.953125 307.898438 Z M 177.90625 307.855469 " fill-opacity="1" fill-rule="nonzero"/><path fill="#38b6ff" d="M 41.242188 207.613281 L 64.460938 184.390625 L 84.175781 164.675781 C 84.910156 165.15625 85.660156 165.613281 86.421875 166.050781 C 87.183594 166.484375 87.957031 166.894531 88.742188 167.285156 C 89.527344 167.675781 90.324219 168.042969 91.132812 168.382812 C 91.941406 168.726562 92.757812 169.042969 93.582031 169.335938 C 94.410156 169.632812 95.246094 169.902344 96.085938 170.144531 C 96.929688 170.390625 97.777344 170.609375 98.632812 170.804688 C 99.488281 170.996094 100.351562 171.167969 101.214844 171.308594 C 102.082031 171.453125 102.949219 171.570312 103.820312 171.660156 C 104.695312 171.753906 105.570312 171.820312 106.445312 171.859375 C 107.320312 171.898438 108.199219 171.914062 109.074219 171.902344 C 109.953125 171.890625 110.828125 171.851562 111.703125 171.789062 C 112.578125 171.726562 113.449219 171.636719 114.320312 171.519531 C 115.1875 171.40625 116.054688 171.265625 116.914062 171.097656 C 117.777344 170.929688 118.632812 170.738281 119.480469 170.523438 C 120.332031 170.304688 121.175781 170.0625 122.011719 169.796875 C 122.847656 169.527344 123.671875 169.238281 124.492188 168.921875 C 125.308594 168.605469 126.117188 168.265625 126.914062 167.902344 C 127.714844 167.535156 128.5 167.148438 129.277344 166.738281 C 130.050781 166.328125 130.8125 165.894531 131.5625 165.441406 C 132.3125 164.984375 133.046875 164.507812 133.769531 164.007812 C 134.492188 163.507812 135.195312 162.988281 135.886719 162.449219 C 136.578125 161.90625 137.25 161.347656 137.910156 160.765625 C 138.566406 160.183594 139.207031 159.585938 139.828125 158.964844 C 140.449219 158.347656 141.050781 157.710938 141.636719 157.054688 C 142.21875 156.402344 142.785156 155.730469 143.328125 155.042969 C 143.875 154.355469 144.398438 153.652344 144.898438 152.933594 C 145.402344 152.214844 145.882812 151.480469 146.34375 150.734375 C 146.800781 149.988281 147.238281 149.226562 147.652344 148.453125 C 148.066406 147.679688 148.457031 146.894531 148.828125 146.097656 C 149.195312 145.304688 149.539062 144.496094 149.859375 143.679688 C 150.179688 142.863281 150.476562 142.039062 150.746094 141.203125 C 151.015625 140.371094 151.265625 139.527344 151.484375 138.679688 C 151.707031 137.832031 151.902344 136.976562 152.074219 136.117188 C 152.246094 135.253906 152.390625 134.390625 152.507812 133.519531 C 152.628906 132.652344 152.722656 131.78125 152.792969 130.90625 C 152.859375 130.03125 152.902344 129.15625 152.917969 128.277344 C 152.933594 127.402344 152.925781 126.523438 152.886719 125.648438 C 152.851562 124.773438 152.792969 123.898438 152.703125 123.023438 C 152.617188 122.152344 152.503906 121.28125 152.363281 120.417969 C 152.226562 119.550781 152.0625 118.6875 151.871094 117.832031 C 151.679688 116.976562 151.464844 116.125 151.226562 115.28125 C 150.984375 114.4375 150.71875 113.601562 150.429688 112.773438 C 150.140625 111.949219 149.828125 111.128906 149.488281 110.320312 C 149.152344 109.511719 148.789062 108.710938 148.402344 107.921875 C 148.019531 107.136719 147.609375 106.359375 147.179688 105.597656 C 146.746094 104.832031 146.292969 104.082031 145.816406 103.34375 C 145.339844 102.609375 144.84375 101.886719 144.324219 101.179688 C 143.808594 100.472656 143.269531 99.78125 142.707031 99.105469 C 142.148438 98.429688 141.570312 97.769531 140.972656 97.128906 C 140.371094 96.488281 139.753906 95.863281 139.121094 95.257812 C 138.484375 94.65625 137.832031 94.070312 137.164062 93.503906 C 136.492188 92.9375 135.804688 92.390625 135.105469 91.867188 C 134.402344 91.339844 133.683594 90.835938 132.953125 90.351562 C 132.21875 89.871094 131.472656 89.410156 130.714844 88.96875 C 129.953125 88.53125 129.183594 88.117188 128.398438 87.722656 C 127.613281 87.328125 126.820312 86.960938 126.011719 86.613281 C 125.207031 86.265625 124.390625 85.945312 123.566406 85.648438 C 122.742188 85.347656 121.910156 85.078125 121.066406 84.828125 C 120.226562 84.578125 119.378906 84.355469 118.523438 84.15625 C 117.667969 83.960938 116.808594 83.785156 115.945312 83.640625 C 115.082031 83.492188 114.210938 83.371094 113.339844 83.273438 C 112.46875 83.179688 111.59375 83.109375 110.71875 83.0625 C 109.84375 83.019531 108.964844 83 108.089844 83.007812 C 107.210938 83.015625 106.335938 83.050781 105.460938 83.109375 C 104.585938 83.167969 103.710938 83.253906 102.84375 83.367188 C 101.972656 83.476562 101.105469 83.613281 100.242188 83.777344 C 99.382812 83.9375 98.527344 84.125 97.675781 84.339844 C 96.824219 84.550781 95.980469 84.789062 95.144531 85.054688 C 94.304688 85.316406 93.476562 85.605469 92.660156 85.917969 C 91.839844 86.230469 91.027344 86.566406 90.230469 86.925781 C 89.429688 87.285156 88.640625 87.667969 87.863281 88.074219 C 87.085938 88.480469 86.320312 88.910156 85.570312 89.363281 C 84.816406 89.816406 84.082031 90.289062 83.355469 90.785156 C 82.632812 91.28125 81.925781 91.796875 81.230469 92.335938 C 80.539062 92.871094 79.863281 93.429688 79.203125 94.007812 C 78.542969 94.585938 77.898438 95.183594 77.273438 95.796875 C 76.648438 96.414062 76.042969 97.046875 75.457031 97.699219 C 74.871094 98.351562 74.300781 99.019531 73.753906 99.703125 C 73.207031 100.390625 72.679688 101.089844 72.171875 101.804688 C 71.667969 102.523438 71.183594 103.253906 70.71875 104 C 70.257812 104.742188 69.816406 105.503906 69.398438 106.273438 C 68.980469 107.042969 68.585938 107.828125 68.214844 108.621094 C 67.84375 109.417969 67.496094 110.222656 67.171875 111.035156 C 66.847656 111.851562 66.546875 112.675781 66.269531 113.507812 C 65.996094 114.339844 65.746094 115.179688 65.519531 116.027344 C 65.292969 116.875 65.09375 117.730469 64.917969 118.589844 C 64.746094 119.449219 64.59375 120.3125 64.472656 121.183594 C 64.347656 122.050781 64.25 122.921875 64.175781 123.796875 C 64.105469 124.667969 64.058594 125.546875 64.039062 126.421875 C 64.015625 127.300781 64.023438 128.175781 64.054688 129.050781 C 64.085938 129.929688 64.144531 130.804688 64.226562 131.675781 C 64.308594 132.550781 64.417969 133.421875 64.554688 134.289062 C 64.6875 135.152344 64.847656 136.015625 65.035156 136.875 C 65.21875 137.730469 65.429688 138.582031 65.667969 139.425781 C 65.902344 140.269531 66.164062 141.109375 66.449219 141.9375 C 66.738281 142.765625 67.046875 143.585938 67.382812 144.398438 L 100.199219 122.824219 L 51.546875 171.476562 C 50.976562 171.152344 50.394531 170.847656 49.804688 170.554688 C 49.214844 170.265625 48.617188 169.992188 48.011719 169.738281 C 47.40625 169.480469 46.792969 169.242188 46.171875 169.023438 C 45.554688 168.804688 44.929688 168.601562 44.296875 168.417969 C 43.667969 168.230469 43.03125 168.066406 42.390625 167.917969 C 41.75 167.773438 41.105469 167.644531 40.457031 167.53125 C 39.808594 167.421875 39.15625 167.332031 38.503906 167.257812 C 37.851562 167.183594 37.195312 167.132812 36.539062 167.097656 C 35.882812 167.0625 35.226562 167.046875 34.570312 167.050781 C 33.910156 167.050781 33.253906 167.074219 32.597656 167.117188 C 31.941406 167.15625 31.289062 167.214844 30.636719 167.296875 C 29.980469 167.375 29.332031 167.472656 28.683594 167.589844 C 28.039062 167.703125 27.394531 167.839844 26.757812 167.992188 C 26.117188 168.148438 25.484375 168.320312 24.851562 168.507812 C 24.222656 168.699219 23.601562 168.90625 22.984375 169.132812 C 22.367188 169.359375 21.757812 169.605469 21.152344 169.867188 C 20.550781 170.125 19.953125 170.40625 19.367188 170.699219 C 18.78125 170.996094 18.203125 171.308594 17.632812 171.636719 C 17.0625 171.96875 16.503906 172.3125 15.957031 172.675781 C 15.40625 173.035156 14.867188 173.414062 14.339844 173.804688 C 13.8125 174.199219 13.296875 174.605469 12.792969 175.027344 C 12.289062 175.449219 11.800781 175.886719 11.320312 176.339844 C 10.84375 176.789062 10.378906 177.253906 9.925781 177.730469 C 9.472656 178.207031 9.035156 178.699219 8.613281 179.203125 C 8.1875 179.703125 7.78125 180.21875 7.386719 180.746094 C 6.992188 181.273438 6.613281 181.808594 6.253906 182.359375 C 5.890625 182.90625 5.542969 183.464844 5.210938 184.03125 C 4.882812 184.601562 4.570312 185.179688 4.273438 185.765625 C 3.972656 186.351562 3.695312 186.945312 3.433594 187.546875 C 3.167969 188.152344 2.925781 188.761719 2.695312 189.378906 C 2.46875 189.996094 2.257812 190.617188 2.066406 191.246094 C 1.875 191.875 1.703125 192.507812 1.546875 193.148438 C 1.394531 193.785156 1.257812 194.429688 1.140625 195.078125 C 1.023438 195.722656 0.921875 196.371094 0.84375 197.027344 C 0.761719 197.679688 0.699219 198.332031 0.660156 198.988281 C 0.617188 199.644531 0.59375 200.300781 0.585938 200.957031 C 0.582031 201.617188 0.597656 202.273438 0.632812 202.929688 C 0.664062 203.585938 0.71875 204.242188 0.789062 204.894531 C 0.859375 205.546875 0.949219 206.199219 1.058594 206.847656 C 1.167969 207.496094 1.292969 208.140625 1.441406 208.78125 C 1.585938 209.421875 1.75 210.058594 1.933594 210.691406 C 2.117188 211.320312 2.316406 211.945312 2.535156 212.566406 C 2.757812 213.1875 2.992188 213.800781 3.246094 214.40625 C 3.5 215.011719 3.773438 215.609375 4.0625 216.203125 C 4.351562 216.792969 4.65625 217.375 4.980469 217.945312 C 5.300781 218.519531 5.640625 219.082031 5.996094 219.636719 C 6.351562 220.1875 6.722656 220.730469 7.109375 221.261719 C 7.496094 221.796875 7.894531 222.316406 8.3125 222.824219 C 8.730469 223.332031 9.160156 223.828125 9.605469 224.3125 C 10.050781 224.796875 10.507812 225.265625 10.980469 225.722656 C 11.453125 226.183594 11.9375 226.625 12.4375 227.054688 C 12.933594 227.484375 13.445312 227.898438 13.964844 228.296875 C 14.488281 228.699219 15.019531 229.082031 15.566406 229.449219 C 16.109375 229.820312 16.664062 230.171875 17.226562 230.511719 C 17.792969 230.847656 18.367188 231.167969 18.949219 231.472656 C 19.53125 231.777344 20.125 232.0625 20.722656 232.332031 C 21.324219 232.601562 21.929688 232.855469 22.542969 233.089844 C 23.15625 233.324219 23.777344 233.539062 24.40625 233.738281 C 25.03125 233.9375 25.664062 234.117188 26.300781 234.28125 C 26.9375 234.441406 27.578125 234.585938 28.222656 234.710938 C 28.867188 234.835938 29.515625 234.945312 30.167969 235.03125 C 30.820312 235.121094 31.472656 235.1875 32.128906 235.238281 C 32.785156 235.289062 33.441406 235.320312 34.097656 235.332031 C 34.757812 235.34375 35.414062 235.335938 36.070312 235.3125 C 36.726562 235.285156 37.382812 235.242188 38.039062 235.175781 C 38.691406 235.113281 39.34375 235.03125 39.992188 234.929688 C 40.640625 234.828125 41.289062 234.707031 41.929688 234.570312 C 42.574219 234.429688 43.210938 234.273438 43.84375 234.097656 C 44.480469 233.921875 45.105469 233.730469 45.730469 233.519531 C 46.351562 233.304688 46.96875 233.078125 47.578125 232.828125 C 48.1875 232.582031 48.789062 232.316406 49.382812 232.035156 C 49.976562 231.753906 50.558594 231.453125 51.136719 231.136719 C 51.714844 230.824219 52.28125 230.488281 52.835938 230.140625 C 53.394531 229.792969 53.941406 229.429688 54.476562 229.046875 C 55.015625 228.667969 55.539062 228.273438 56.054688 227.863281 C 56.566406 227.453125 57.066406 227.027344 57.554688 226.585938 C 58.046875 226.148438 58.519531 225.695312 58.984375 225.226562 C 59.445312 224.761719 59.894531 224.28125 60.332031 223.789062 C 60.765625 223.292969 61.1875 222.789062 61.59375 222.273438 C 62 221.753906 62.386719 221.226562 62.765625 220.6875 C 63.140625 220.148438 63.5 219.597656 63.84375 219.035156 C 64.1875 218.476562 64.511719 217.90625 64.824219 217.328125 C 65.132812 216.746094 65.429688 216.160156 65.703125 215.5625 C 65.980469 214.96875 66.242188 214.363281 66.480469 213.75 C 66.722656 213.140625 66.949219 212.523438 67.152344 211.898438 C 67.359375 211.273438 67.546875 210.644531 67.71875 210.007812 C 67.886719 209.375 68.039062 208.734375 68.171875 208.089844 C 68.304688 207.445312 68.417969 206.800781 68.515625 206.148438 C 68.609375 205.5 68.6875 204.847656 68.742188 204.191406 C 68.800781 203.535156 68.839844 202.878906 68.859375 202.222656 C 68.878906 201.566406 68.882812 200.910156 68.863281 200.253906 C 68.84375 199.59375 68.808594 198.9375 68.75 198.285156 C 68.695312 197.628906 68.621094 196.976562 68.527344 196.324219 C 68.433594 195.675781 68.320312 195.027344 68.191406 194.382812 C 68.058594 193.738281 67.910156 193.097656 67.742188 192.464844 C 67.574219 191.828125 67.386719 191.199219 67.183594 190.574219 Z M 41.242188 207.613281 " fill-opacity="1" fill-rule="nonzero"/><g clip-path="url(#ce4bd8584f)"><path fill="#38b6ff" d="M 225.703125 187.054688 C 225.703125 210.261719 204.679688 229.101562 178.75 229.101562 C 166.726562 229.101562 155.261719 225.285156 145.753906 217.964844 C 143.113281 215.90625 140.644531 213.644531 138.585938 211.101562 C 141.179688 219.847656 145.121094 228.3125 150.433594 235.8125 C 158.769531 247.65625 170.363281 257.164062 184.773438 262.019531 L 184.773438 242.546875 C 184.773438 241.046875 185.996094 239.828125 187.496094 239.828125 C 201.984375 239.828125 215.128906 233.929688 224.632812 224.421875 C 234.089844 214.914062 239.960938 201.847656 239.960938 187.359375 C 239.960938 172.871094 234.066406 159.753906 224.609375 150.246094 C 215.101562 140.816406 201.984375 134.917969 187.496094 134.917969 C 173.003906 134.917969 159.941406 140.816406 150.433594 150.246094 C 140.925781 159.753906 135.027344 172.894531 135.027344 187.386719 C 135.027344 188.425781 135.105469 189.519531 135.105469 190.613281 C 136.144531 199.664062 141.433594 207.746094 149.136719 213.644531 C 150.050781 214.355469 151.015625 214.992188 151.984375 215.652344 L 151.984375 182.199219 C 151.984375 173.199219 156.125 165.066406 162.710938 159.167969 C 169.242188 153.347656 178.242188 149.710938 188.207031 149.710938 C 195.578125 149.710938 202.570312 151.71875 208.441406 155.28125 C 214.339844 158.890625 219.042969 164.023438 221.839844 170.277344 C 223.058594 172.871094 224.050781 175.640625 224.683594 178.359375 C 225.398438 181.234375 225.703125 184.132812 225.703125 187.054688 Z M 225.703125 187.054688 " fill-opacity="1" fill-rule="nonzero"/></g><path fill="#38b6ff" d="M 178.75 223.609375 C 201.65625 223.609375 220.210938 207.238281 220.210938 187.054688 C 220.210938 184.539062 219.878906 182.074219 219.371094 179.683594 C 218.789062 177.21875 217.949219 174.828125 216.855469 172.566406 L 216.78125 172.488281 C 214.515625 167.304688 210.5 162.980469 205.59375 160.007812 C 200.613281 156.957031 194.535156 155.230469 188.207031 155.230469 C 179.664062 155.230469 171.914062 158.328125 166.34375 163.261719 C 160.90625 168.089844 157.472656 174.828125 157.472656 182.199219 L 157.472656 218.753906 C 163.929688 221.777344 171.300781 223.609375 178.75 223.609375 Z M 177.988281 195.46875 C 177.023438 195.851562 175.980469 196.105469 174.886719 196.105469 C 170.285156 196.105469 166.601562 192.34375 166.601562 187.816406 C 166.601562 183.214844 170.285156 179.53125 174.886719 179.53125 C 179.410156 179.53125 183.171875 183.214844 183.171875 187.816406 C 183.171875 189.570312 182.589844 191.171875 181.675781 192.546875 C 181.546875 191.121094 180.328125 190.027344 178.902344 190.027344 C 177.351562 190.027344 176.054688 191.25 176.054688 192.800781 C 176.03125 194.046875 176.871094 195.136719 177.988281 195.46875 Z M 200.15625 196.105469 C 195.554688 196.105469 191.867188 192.34375 191.867188 187.816406 C 191.867188 183.214844 195.554688 179.53125 200.15625 179.53125 C 204.753906 179.53125 208.441406 183.214844 208.441406 187.816406 C 208.441406 189.570312 207.933594 191.171875 206.941406 192.546875 C 206.816406 191.121094 205.59375 190.027344 204.171875 190.027344 C 202.621094 190.027344 201.398438 191.25 201.398438 192.800781 C 201.398438 194.019531 202.1875 195.136719 203.332031 195.445312 C 202.367188 195.851562 201.273438 196.105469 200.15625 196.105469 Z M 200.15625 196.105469 " fill-opacity="1" fill-rule="nonzero"/></svg>